<svg xmlns="http://www.w3.org/2000/svg" xmlns:xlink="http://www.w3.org/1999/xlink" width="500" zoomAndPan="magnify" viewBox="0 0 375 374.999991" height="500" preserveAspectRatio="xMidYMid meet" version="1.0"><defs><clipPath id="c727f62fc7"><path d="M 75.8125 60 L 299.3125 60 L 299.3125 315 L 75.8125 315 Z M 75.8125 60 " clip-rule="nonzero"/></clipPath><clipPath id="29bcaa7328"><path d="M 233 162.542969 L 282.5 162.542969 L 282.5 212 L 233 212 Z M 233 162.542969 " clip-rule="nonzero"/></clipPath><clipPath id="b04721917a"><path d="M 91.28125 105.542969 L 233.03125 105.542969 L 233.03125 269 L 91.28125 269 Z M 91.28125 105.542969 " clip-rule="nonzero"/></clipPath><clipPath id="5ac6d08603"><path d="M 58.933594 44.351562 L 316.183594 44.351562 L 316.183594 341.351562 L 58.933594 341.351562 Z M 58.933594 44.351562 " clip-rule="nonzero"/></clipPath><clipPath id="0ead789422"><path d="M 58.933594 33.382812 L 316.183594 33.382812 L 316.183594 330.382812 L 58.933594 330.382812 Z M 58.933594 33.382812 " clip-rule="nonzero"/></clipPath></defs><g clip-path="url(#c727f62fc7)"><path fill="#e2a9f1" d="M 299.3125 245.441406 L 299.3125 129.226562 C 299.3125 125.679688 296.796875 121.324219 293.722656 119.542969 L 193.085938 61.445312 C 190.011719 59.664062 184.976562 59.664062 181.902344 61.445312 L 81.265625 119.546875 C 78.191406 121.328125 75.675781 125.683594 75.675781 129.230469 L 75.675781 245.441406 C 75.675781 248.992188 78.191406 253.347656 81.265625 255.128906 L 181.902344 313.246094 C 184.976562 315.027344 190.011719 315.027344 193.085938 313.246094 L 293.722656 255.128906 C 296.796875 253.363281 299.3125 248.992188 299.3125 245.441406 Z M 299.3125 245.441406 " fill-opacity="1" fill-rule="nonzero"/></g><g clip-path="url(#29bcaa7328)"><path fill="#000000" d="M 257.78125 211.988281 C 271.363281 211.988281 282.574219 200.777344 282.574219 187.21875 C 282.574219 173.660156 271.339844 162.449219 257.753906 162.449219 C 244.195312 162.449219 233.011719 173.660156 233.011719 187.21875 C 233.011719 200.777344 244.222656 211.988281 257.78125 211.988281 Z M 257.78125 207.054688 C 246.785156 207.054688 237.992188 198.214844 237.992188 187.21875 C 237.992188 176.222656 246.785156 167.410156 257.753906 167.410156 C 268.75 167.410156 277.589844 176.222656 277.613281 187.21875 C 277.636719 198.214844 268.773438 207.054688 257.78125 207.054688 Z M 251.574219 198.191406 C 253.011719 198.191406 253.828125 197.28125 253.828125 195.722656 L 253.828125 190.308594 L 257.707031 190.308594 L 261.589844 196.683594 C 262.308594 197.808594 262.859375 198.191406 263.839844 198.191406 C 265.0625 198.191406 265.902344 197.402344 265.902344 196.300781 C 265.902344 195.699219 265.757812 195.269531 265.398438 194.742188 L 262.042969 189.589844 C 264.796875 188.703125 266.570312 186.238281 266.570312 183.265625 C 266.570312 178.929688 263.480469 176.222656 258.449219 176.222656 L 251.742188 176.222656 C 250.1875 176.222656 249.371094 177.230469 249.371094 178.859375 L 249.371094 195.722656 C 249.371094 197.234375 250.136719 198.191406 251.574219 198.191406 Z M 253.828125 187.050781 L 253.828125 179.601562 L 257.898438 179.601562 C 260.390625 179.601562 262.019531 180.992188 262.019531 183.386719 C 262.019531 185.710938 260.414062 187.050781 257.828125 187.050781 Z M 253.828125 187.050781 " fill-opacity="1" fill-rule="nonzero"/></g><g clip-path="url(#b04721917a)"><path fill="#000000" d="M 165.101562 107.292969 L 230.054688 144.753906 L 233.03125 146.460938 L 233.03125 153.210938 L 230.054688 154.917969 L 194.632812 175.351562 L 162.15625 156.625 L 135.636719 171.941406 L 135.636719 202.613281 L 162.15625 217.929688 L 194.632812 199.199219 L 206.441406 206.023438 C 215.304688 211.140625 224.167969 216.261719 233.03125 221.378906 L 233.03125 228.128906 L 230.054688 229.835938 L 165.101562 267.296875 L 162.15625 269 L 159.214844 267.296875 L 150.351562 262.175781 L 166.589844 252.8125 C 182.828125 243.449219 199.066406 234.082031 215.269531 224.71875 L 194.597656 212.8125 L 141.488281 243.519531 L 137.054688 246.0625 L 129.679688 250.308594 L 126.738281 248.601562 L 94.261719 229.910156 L 91.28125 228.167969 L 91.28125 146.496094 L 94.261719 144.789062 L 126.738281 126.0625 L 129.679688 124.355469 L 132.625 126.0625 L 194.597656 161.8125 L 215.269531 149.910156 L 191.65625 136.296875 L 174.109375 126.097656 L 162.15625 119.199219 L 150.351562 112.375 L 159.214844 107.292969 L 162.15625 105.589844 Z M 150.351562 224.789062 L 123.757812 209.4375 L 123.757812 165.226562 L 150.351562 149.871094 L 129.679688 137.964844 L 103.160156 153.285156 L 103.160156 221.378906 L 129.679688 236.695312 Z M 150.351562 224.789062 " fill-opacity="1" fill-rule="evenodd"/></g><g clip-path="url(#5ac6d08603)"><path fill="#000000" d="M 316.183594 149.355469 L 310.375 149.355469 L 310.375 122.042969 L 187.558594 51.171875 L 64.738281 122.042969 L 64.738281 149.355469 L 58.933594 149.355469 L 58.933594 118.679688 L 187.558594 44.503906 L 316.183594 118.679688 Z M 316.183594 267.023438 L 316.183594 236.347656 L 310.375 236.347656 L 310.375 263.660156 L 187.558594 334.46875 L 64.738281 263.660156 L 64.738281 236.347656 L 58.933594 236.347656 L 58.933594 267.023438 L 187.558594 341.199219 Z M 316.183594 267.023438 " fill-opacity="1" fill-rule="nonzero"/></g><g clip-path="url(#0ead789422)"><path fill="#000000" d="M 316.183594 138.390625 L 310.375 138.390625 L 310.375 111.074219 L 187.558594 40.207031 L 64.738281 111.074219 L 64.738281 138.390625 L 58.933594 138.390625 L 58.933594 107.710938 L 187.558594 33.539062 L 316.183594 107.710938 Z M 316.183594 256.058594 L 316.183594 225.378906 L 310.375 225.378906 L 310.375 252.695312 L 187.558594 323.503906 L 64.738281 252.695312 L 64.738281 225.378906 L 58.933594 225.378906 L 58.933594 256.058594 L 187.558594 330.230469 Z M 316.183594 256.058594 " fill-opacity="1" fill-rule="nonzero"/></g></svg>